<mxfile host="app.diagrams.net" modified="2024-02-16T13:51:03.746Z" agent="Mozilla/5.0 (Windows NT 10.0; Win64; x64) AppleWebKit/537.36 (KHTML, like Gecko) Chrome/120.0.0.0 YaBrowser/24.1.0.0 Safari/537.36" etag="8_kS7BhxhUZwN1tv_PyO" version="23.1.5" type="device">
  <diagram name="Страница — 1" id="dnA5IYjh07y0FrbYYck3">
    <mxGraphModel dx="885" dy="526" grid="1" gridSize="10" guides="1" tooltips="1" connect="1" arrows="1" fold="1" page="1" pageScale="1" pageWidth="827" pageHeight="1169" math="0" shadow="0">
      <root>
        <mxCell id="0" />
        <mxCell id="1" parent="0" />
        <mxCell id="80_0LYbw5Qsc0X3aQ-sq-9" value="" style="ellipse;whiteSpace=wrap;html=1;" vertex="1" parent="1">
          <mxGeometry x="286.5" y="370" width="145" height="100" as="geometry" />
        </mxCell>
        <mxCell id="80_0LYbw5Qsc0X3aQ-sq-8" value="" style="ellipse;whiteSpace=wrap;html=1;" vertex="1" parent="1">
          <mxGeometry x="322.5" y="260" width="145" height="100" as="geometry" />
        </mxCell>
        <mxCell id="80_0LYbw5Qsc0X3aQ-sq-7" value="" style="ellipse;whiteSpace=wrap;html=1;" vertex="1" parent="1">
          <mxGeometry x="269" y="150" width="145" height="100" as="geometry" />
        </mxCell>
        <mxCell id="80_0LYbw5Qsc0X3aQ-sq-1" value="Учитель математики" style="shape=umlActor;verticalLabelPosition=bottom;verticalAlign=top;html=1;outlineConnect=0;" vertex="1" parent="1">
          <mxGeometry x="180" y="260" width="30" height="60" as="geometry" />
        </mxCell>
        <mxCell id="80_0LYbw5Qsc0X3aQ-sq-2" value="" style="endArrow=classic;html=1;rounded=0;entryX=0.09;entryY=0.788;entryDx=0;entryDy=0;entryPerimeter=0;" edge="1" parent="1" target="80_0LYbw5Qsc0X3aQ-sq-7">
          <mxGeometry width="50" height="50" relative="1" as="geometry">
            <mxPoint x="230" y="270" as="sourcePoint" />
            <mxPoint x="280" y="220" as="targetPoint" />
          </mxGeometry>
        </mxCell>
        <mxCell id="80_0LYbw5Qsc0X3aQ-sq-3" value="Создание задач &lt;br&gt;и их решений" style="text;html=1;align=center;verticalAlign=middle;resizable=0;points=[];autosize=1;strokeColor=none;fillColor=none;" vertex="1" parent="1">
          <mxGeometry x="286.5" y="180" width="110" height="40" as="geometry" />
        </mxCell>
        <mxCell id="80_0LYbw5Qsc0X3aQ-sq-4" value="Редактирование задач &lt;br&gt;и их решений" style="text;html=1;align=center;verticalAlign=middle;resizable=0;points=[];autosize=1;strokeColor=none;fillColor=none;" vertex="1" parent="1">
          <mxGeometry x="320" y="290" width="150" height="40" as="geometry" />
        </mxCell>
        <mxCell id="80_0LYbw5Qsc0X3aQ-sq-6" value="Построение &lt;br&gt;математических &lt;br&gt;графиков" style="text;html=1;align=center;verticalAlign=middle;resizable=0;points=[];autosize=1;strokeColor=none;fillColor=none;" vertex="1" parent="1">
          <mxGeometry x="304" y="390" width="110" height="60" as="geometry" />
        </mxCell>
        <mxCell id="80_0LYbw5Qsc0X3aQ-sq-10" value="" style="endArrow=classic;html=1;rounded=0;" edge="1" parent="1">
          <mxGeometry width="50" height="50" relative="1" as="geometry">
            <mxPoint x="250" y="309.68" as="sourcePoint" />
            <mxPoint x="320" y="309.68" as="targetPoint" />
          </mxGeometry>
        </mxCell>
        <mxCell id="80_0LYbw5Qsc0X3aQ-sq-11" value="" style="endArrow=classic;html=1;rounded=0;" edge="1" parent="1">
          <mxGeometry width="50" height="50" relative="1" as="geometry">
            <mxPoint x="240" y="360" as="sourcePoint" />
            <mxPoint x="291" y="400" as="targetPoint" />
          </mxGeometry>
        </mxCell>
      </root>
    </mxGraphModel>
  </diagram>
</mxfile>
